# xmcd
#
# Track frame offsets:
#	150
#	19420
#	31632
#	48170
#	60927
#	75105
#	89849
#	105161
#	119319
#	133853
#
# Disc length: 1966 seconds
#
# Revision: 1
# Processed by: cddbd v1.5.2PL0 Copyright (c) Steve Scherf et al.
# Submitted via: audiograbber 1.83.01
#
DISCID=6d07ac0a
DTITLE=Virginia Grey - Cowboy Shakes
DYEAR=2007
DGENRE=Country
TTITLE0=His Love Is Eternal
TTITLE1=Cowboy Shake
TTITLE2=I Still Come By
TTITLE3=Movin Out, Movin In 
TTITLE4=You Lost Me
TTITLE5=Go Critter Low Critter
TTITLE6=No Way To Teach A Soul
TTITLE7=Redneck Girl
TTITLE8=Let The Whole World Know He´s Mine 
TTITLE9=Let Our Feelings Guide The Way
EXTD=
EXTT0=
EXTT1=
EXTT2=
EXTT3=
EXTT4=
EXTT5=
EXTT6=
EXTT7=
EXTT8=
EXTT9=
PLAYORDER=
